Coordinates
version=1
nRows=16
nColumns=33
inDegrees=yes

Units are S.I. units (second, meters, Newtons, ...)
Angles are in degrees.

endheader
time	ground_thorax_rot_x	ground_thorax_rot_y	ground_thorax_rot_z	ground_thorax_tx	ground_thorax_ty	ground_thorax_tz	clav_prot_r	clav_elev_r	scapula_abduction_r	scapula_elevation_r	scapula_upward_rot_r	scapula_winging_r	shoulder_elv_r	plane_of_elev_r	axial_rot_r	elbow_flexion_r	pro_sup_r	wrist_flex_r	wrist_dev_r	clav_prot_l	clav_elev_l	scapula_abduction_l	scapula_elevation_l	scapula_upward_rot_l	scapula_winging_l	shoulder_elv_l	plane_of_elev_l	axial_rot_l	elbow_flexion_l	pro_sup_l	wrist_flex_l	wrist_dev_l
      5.35000000	     37.66098084	      1.60477001	      2.57459043	    -11.00405454	    808.34984791	      4.04596567	     -7.37743150	     35.93723062	     45.00000000	     38.57630861	     45.00000000	  -3355.07542096	     56.99868477	     16.12845692	   -179.99999979	   1446.91161342	    -97.67838824	     14.79245649	     11.57461578	      6.46650061	    -45.00000000	    -45.00000000	     45.00000000	    -16.46594540	   2601.01989685	  -3890.27711923	     20.92032852	    -40.54213618	    366.73682593	     28.32005726	      9.86753032	    -19.09337670
      5.36000000	     37.61158913	      1.80172538	      2.80029331	     -9.46190583	    807.26690815	      4.28497417	     -6.72176955	     35.81749702	     45.00000000	     37.97631200	     43.77406258	  -3354.28767468	     56.95074195	     16.19415164	   -179.99999979	   1446.71178539	    -97.41368904	     15.14929482	     11.59881251	      6.66898314	    -45.00000000	    -45.00000000	     45.00000000	    -16.92518583	   2601.10623399	  -3890.42627215	     21.23321223	    -40.93835181	    366.66656957	     28.87582560	      9.85051609	    -19.11972199
      5.37000000	     37.61117801	      1.68930800	      2.45043165	     -8.38514737	    806.35994779	      4.38916654	     -7.34337868	     35.01460697	     45.00000000	     37.86680238	     45.00000000	  -3354.57140228	     57.29259165	     15.86118234	   -179.99999979	   1446.72179264	    -96.68886209	     14.35763379	     11.34768693	      6.47888228	    -45.00000000	    -45.00000000	     45.00000000	    -16.62839338	   2600.60147207	  -3890.23966525	     20.97930134	    -40.75435082	    366.79697775	     29.37942092	      9.80984833	    -19.32776671
      5.38000000	     37.55782295	      1.74452281	      2.72684339	     -7.71889014	    805.57771946	      4.37750337	     -7.27546820	     35.18930344	     45.00000000	     37.39887460	     44.00727143	  -3353.83503825	     57.14678582	     15.79199510	   -179.99999979	   1446.53514841	    -95.70660280	     14.14817371	     11.13478835	      6.38599992	    -45.00000000	    -45.00000000	     45.00000000	    -16.62797492	   2600.69440465	  -3890.40213016	     20.80535792	    -40.61069770	    366.84573637	     29.89845024	      9.78640557	    -19.44384238
      5.39000000	     37.45212362	      1.74522957	      2.68221282	     -7.44200247	    804.88564834	      4.27101512	     -7.05427989	     34.85286626	     45.00000000	     37.04365908	     44.25792004	  -3353.77977236	     57.41939666	     15.79450491	   -179.99999979	   1446.66508847	    -94.67182953	     14.20008664	     11.14068372	      6.38178813	    -45.00000000	    -45.00000000	     45.00000000	    -16.55249730	   2600.78116437	  -3890.38582663	     20.87917841	    -40.60985146	    366.78566664	     30.35946917	      9.77930767	    -19.51843850
      5.40000000	     37.59101170	      1.66802269	      2.53743515	     -7.52272874	    804.24118378	      4.09533186	     -7.32039694	     35.09262092	     45.00000000	     37.11857333	     43.78675830	  -3353.72699551	     57.14198610	     15.78449517	   -179.99999979	   1446.34917591	    -93.43514934	     14.05864405	     10.95502445	      6.29142493	    -45.00000000	    -45.00000000	     45.00000000	    -16.48429428	   2600.64352106	  -3890.53474608	     20.83150423	    -40.59173338	    366.71792254	     30.73539022	      9.82784599	    -19.59386697
      5.41000000	     37.46131284	      1.77770664	      2.70991447	     -7.94325126	    803.61952154	      3.87696189	     -6.92574621	     34.74521613	     45.00000000	     36.72636143	     43.56482778	  -3353.53959962	     57.42583976	     15.80801076	   -179.99999979	   1446.31908482	    -92.05792749	     14.37254435	     11.00158337	      6.30209330	    -45.00000000	    -45.00000000	     45.00000000	    -16.64422148	   2600.90797506	  -3890.52938551	     20.87857907	    -40.50690402	    366.68372574	     30.97454898	      9.83860270	    -19.67179459
      5.42000000	     37.52482750	      1.76238604	      2.67825544	     -8.68560155	    803.00328752	      3.64173611	     -7.13147957	     35.06668409	     45.00000000	     36.69684562	     42.85435541	  -3353.49702490	     57.09930533	     15.90881386	   -179.99999979	   1446.02033633	    -90.63345139	     14.06853571	     10.80106095	      6.32711315	    -45.00000000	    -45.00000000	     45.00000000	    -16.70706088	   2600.91609109	  -3890.58053514	     20.83202854	    -40.58672823	    366.67388871	     31.11494412	      9.90931181	    -19.76834987
      5.43000000	     37.41639220	      1.94622752	      2.98698066	     -9.74030775	    802.37854138	      3.41032635	     -6.66256182	     34.69288354	     45.00000000	     36.39507110	     42.62184981	  -3353.37015015	     57.51344218	     15.90818522	   -179.99999979	   1446.01654927	    -89.22027214	     14.80454772	     10.97043403	      6.34651153	    -45.00000000	    -45.00000000	     45.00000000	    -16.99564566	   2601.22507959	  -3890.60533724	     20.83174899	    -40.66201294	    366.59347142	     31.13436584	      9.86359073	    -19.77519945
      5.44000000	     37.56175430	      1.76660176	      2.82686965	    -11.10200171	    801.73746371	      3.19786936	     -6.89693916	     35.13032124	     45.00000000	     36.52027845	     41.82854309	  -3353.24732027	     57.06991446	     16.04138766	   -179.99999979	   1445.76766185	    -87.75215801	     13.94566141	     10.68705557	      6.43797272	    -45.00000000	    -45.00000000	     45.00000000	    -17.08458609	   2601.25819201	  -3890.59671635	     20.77143567	    -40.85875457	    366.64530127	     31.08825368	      9.96904800	    -19.89620882
      5.45000000	     37.63798314	      2.03058837	      3.13242980	    -12.76031297	    801.08078400	      3.01583236	     -6.47364736	     34.93866708	     45.00000000	     36.46769903	     41.43121174	  -3353.19699923	     57.49098090	     15.98393992	   -179.99999979	   1445.58461751	    -86.14635031	     14.58207015	     10.81845381	      6.55594530	    -45.00000000	    -45.00000000	     45.00000000	    -17.68954409	   2601.39570590	  -3890.61741037	     20.71430749	    -41.16368078	    366.63973002	     30.95634171	      9.93316744	    -19.88666552
      5.46000000	     37.60676299	      2.10353336	      3.31116424	    -14.70972080	    800.40522280	      2.86139073	     -6.48617732	     35.01120305	     45.00000000	     36.41019756	     41.01728183	  -3353.35975910	     57.61392132	     16.17621418	   -179.99999979	   1445.64984797	    -84.82562317	     14.71619205	     10.81784636	      6.58785679	    -45.00000000	    -45.00000000	     45.00000000	    -17.70470612	   2601.74725839	  -3890.76963903	     20.64811706	    -41.30194964	    366.48621302	     30.80610605	      9.91845662	    -19.88249169
      5.47000000	     37.57026988	      1.97843210	      3.28860138	    -16.93780252	    799.71293540	      2.72640677	     -6.32165850	     35.14710640	     45.00000000	     36.34719908	     40.76461527	  -3353.27374509	     57.75143572	     16.13149115	   -179.99999979	   1445.56767598	    -83.67900391	     14.79602186	     10.87882629	      6.62719714	    -45.00000000	    -45.00000000	     45.00000000	    -18.02592696	   2601.97232999	  -3890.54296779	     20.63868612	    -41.57923685	    366.56231322	     30.66535902	      9.86861634	    -19.88392253
      5.48000000	     37.52548989	      2.07111463	      3.55771717	    -19.43201288	    799.00555536	      2.59641251	     -6.27110905	     35.24391825	     45.00000000	     36.38673714	     40.39359697	  -3353.60993958	     57.83104007	     16.21932465	   -179.99999979	   1445.54884414	    -82.68520712	     14.90518860	     10.83641518	      6.71219832	    -45.00000000	    -45.00000000	     45.00000000	    -18.05003811	   2602.48051577	  -3890.71205077	     20.53197267	    -41.73623803	    366.48191067	     30.53952242	      9.83016430	    -19.87329297
      5.49000000	     37.66149610	      1.75433526	      3.25066555	    -22.19120053	    798.28633259	      2.46063833	     -6.12608399	     35.36034697	     45.00000000	     36.37793066	     39.84862036	  -3353.13524236	     57.94098094	     16.18191427	   -179.99999979	   1445.37435698	    -81.75603348	     14.87831120	     10.90784355	      6.74565984	    -45.00000000	    -45.00000000	     45.00000000	    -18.58118156	   2602.45796510	  -3890.38789528	     20.56274527	    -42.14463244	    366.64360254	     30.45302339	      9.82225083	    -19.90708715
      5.50000000	     37.77954328	      2.15874217	      3.79564676	    -25.20206425	    797.56167032	      2.30840284	     -5.85037166	     35.57937126	     45.00000000	     36.49792006	     38.91219156	  -3353.27865880	     58.22536171	     16.23409392	   -179.99999979	   1445.29203902	    -80.70345385	     14.83611913	     10.84538192	      7.06492681	    -45.00000000	    -45.00000000	     45.00000000	    -19.22625388	   2602.75261625	  -3890.53127212	     20.38562818	    -42.46737101	    366.59801663	     30.34747572	      9.85028662	    -19.92133539
